# PREFA SOPIK parametric wall panel
# Units: millimetres (1 OBJ unit = 1 mm)
mtllib panel_1_3.mtl
o L01_vertical_center
g L01
usemtl kvh_spruce
v 282.500000 0.000000 0.000000
v 342.500000 0.000000 0.000000
v 342.500000 40.000000 0.000000
v 282.500000 40.000000 0.000000
v 282.500000 0.000000 900.000000
v 342.500000 0.000000 900.000000
v 342.500000 40.000000 900.000000
v 282.500000 40.000000 900.000000
f 1 2 6 5
f 2 3 7 6
f 3 4 8 7
f 4 1 5 8
f 5 6 7 8
f 1 4 3 2
o L02_solid
g L02
usemtl fermacell_raw
v 0.000000 40.000000 0.000000
v 625.000000 40.000000 0.000000
v 625.000000 52.500000 0.000000
v 0.000000 52.500000 0.000000
v 0.000000 40.000000 900.000000
v 625.000000 40.000000 900.000000
v 625.000000 52.500000 900.000000
v 0.000000 52.500000 900.000000
f 9 10 14 13
f 10 11 15 14
f 11 12 16 15
f 12 9 13 16
f 13 14 15 16
f 9 12 11 10
o L03_solid
g L03
usemtl vapour_membrane
v 0.000000 52.500000 0.000000
v 625.000000 52.500000 0.000000
v 625.000000 53.000000 0.000000
v 0.000000 53.000000 0.000000
v 0.000000 52.500000 900.000000
v 625.000000 52.500000 900.000000
v 625.000000 53.000000 900.000000
v 0.000000 53.000000 900.000000
f 17 18 22 21
f 18 19 23 22
f 19 20 24 23
f 20 17 21 24
f 21 22 23 24
f 17 20 19 18
o L04_vertical_center
g L04
usemtl kvh_spruce
v 282.500000 53.000000 0.000000
v 342.500000 53.000000 0.000000
v 342.500000 213.000000 0.000000
v 282.500000 213.000000 0.000000
v 282.500000 53.000000 900.000000
v 342.500000 53.000000 900.000000
v 342.500000 213.000000 900.000000
v 282.500000 213.000000 900.000000
f 25 26 30 29
f 26 27 31 30
f 27 28 32 31
f 28 25 29 32
f 29 30 31 32
f 25 28 27 26
o L05_infill_left
g L05
usemtl mineral_wool_soft
v 0.000000 53.000000 0.000000
v 282.500000 53.000000 0.000000
v 282.500000 213.000000 0.000000
v 0.000000 213.000000 0.000000
v 0.000000 53.000000 900.000000
v 282.500000 53.000000 900.000000
v 282.500000 213.000000 900.000000
v 0.000000 213.000000 900.000000
f 33 34 38 37
f 34 35 39 38
f 35 36 40 39
f 36 33 37 40
f 37 38 39 40
f 33 36 35 34
o L05_infill_right
g L05
usemtl mineral_wool_soft
v 342.500000 53.000000 0.000000
v 625.000000 53.000000 0.000000
v 625.000000 213.000000 0.000000
v 342.500000 213.000000 0.000000
v 342.500000 53.000000 900.000000
v 625.000000 53.000000 900.000000
v 625.000000 213.000000 900.000000
v 342.500000 213.000000 900.000000
f 41 42 46 45
f 42 43 47 46
f 43 44 48 47
f 44 41 45 48
f 45 46 47 48
f 41 44 43 42
o L06_solid
g L06
usemtl fermacell_raw
v 0.000000 213.000000 0.000000
v 625.000000 213.000000 0.000000
v 625.000000 225.500000 0.000000
v 0.000000 225.500000 0.000000
v 0.000000 213.000000 900.000000
v 625.000000 213.000000 900.000000
v 625.000000 225.500000 900.000000
v 0.000000 225.500000 900.000000
f 49 50 54 53
f 50 51 55 54
f 51 52 56 55
f 52 49 53 56
f 53 54 55 56
f 49 52 51 50
