# PREFA SOPIK parametric wall panel
# Units: millimetres (1 OBJ unit = 1 mm)
mtllib panel_1_2.mtl
o L01_solid
g L01
usemtl fermacell_raw
v 0.000000 0.000000 0.000000
v 625.000000 0.000000 0.000000
v 625.000000 12.500000 0.000000
v 0.000000 12.500000 0.000000
v 0.000000 0.000000 900.000000
v 625.000000 0.000000 900.000000
v 625.000000 12.500000 900.000000
v 0.000000 12.500000 900.000000
f 1 2 6 5
f 2 3 7 6
f 3 4 8 7
f 4 1 5 8
f 5 6 7 8
f 1 4 3 2
o L02_vertical_center
g L02
usemtl kvh_spruce
v 282.500000 12.500000 0.000000
v 342.500000 12.500000 0.000000
v 342.500000 52.500000 0.000000
v 282.500000 52.500000 0.000000
v 282.500000 12.500000 900.000000
v 342.500000 12.500000 900.000000
v 342.500000 52.500000 900.000000
v 282.500000 52.500000 900.000000
f 9 10 14 13
f 10 11 15 14
f 11 12 16 15
f 12 9 13 16
f 13 14 15 16
f 9 12 11 10
o L03_infill_left
g L03
usemtl mineral_wool_soft
v 0.000000 12.500000 0.000000
v 282.500000 12.500000 0.000000
v 282.500000 52.500000 0.000000
v 0.000000 52.500000 0.000000
v 0.000000 12.500000 900.000000
v 282.500000 12.500000 900.000000
v 282.500000 52.500000 900.000000
v 0.000000 52.500000 900.000000
f 17 18 22 21
f 18 19 23 22
f 19 20 24 23
f 20 17 21 24
f 21 22 23 24
f 17 20 19 18
o L03_infill_right
g L03
usemtl mineral_wool_soft
v 342.500000 12.500000 0.000000
v 625.000000 12.500000 0.000000
v 625.000000 52.500000 0.000000
v 342.500000 52.500000 0.000000
v 342.500000 12.500000 900.000000
v 625.000000 12.500000 900.000000
v 625.000000 52.500000 900.000000
v 342.500000 52.500000 900.000000
f 25 26 30 29
f 26 27 31 30
f 27 28 32 31
f 28 25 29 32
f 29 30 31 32
f 25 28 27 26
o L04_solid
g L04
usemtl fermacell_raw
v 0.000000 52.500000 0.000000
v 625.000000 52.500000 0.000000
v 625.000000 65.000000 0.000000
v 0.000000 65.000000 0.000000
v 0.000000 52.500000 900.000000
v 625.000000 52.500000 900.000000
v 625.000000 65.000000 900.000000
v 0.000000 65.000000 900.000000
f 33 34 38 37
f 34 35 39 38
f 35 36 40 39
f 36 33 37 40
f 37 38 39 40
f 33 36 35 34
o L05_solid
g L05
usemtl vapour_membrane
v 0.000000 65.000000 0.000000
v 625.000000 65.000000 0.000000
v 625.000000 65.500000 0.000000
v 0.000000 65.500000 0.000000
v 0.000000 65.000000 900.000000
v 625.000000 65.000000 900.000000
v 625.000000 65.500000 900.000000
v 0.000000 65.500000 900.000000
f 41 42 46 45
f 42 43 47 46
f 43 44 48 47
f 44 41 45 48
f 45 46 47 48
f 41 44 43 42
o L06_vertical_center
g L06
usemtl kvh_spruce
v 282.500000 65.500000 0.000000
v 342.500000 65.500000 0.000000
v 342.500000 305.500000 0.000000
v 282.500000 305.500000 0.000000
v 282.500000 65.500000 900.000000
v 342.500000 65.500000 900.000000
v 342.500000 305.500000 900.000000
v 282.500000 305.500000 900.000000
f 49 50 54 53
f 50 51 55 54
f 51 52 56 55
f 52 49 53 56
f 53 54 55 56
f 49 52 51 50
o L07_infill_left
g L07
usemtl mineral_wool_soft
v 0.000000 65.500000 0.000000
v 282.500000 65.500000 0.000000
v 282.500000 305.500000 0.000000
v 0.000000 305.500000 0.000000
v 0.000000 65.500000 900.000000
v 282.500000 65.500000 900.000000
v 282.500000 305.500000 900.000000
v 0.000000 305.500000 900.000000
f 57 58 62 61
f 58 59 63 62
f 59 60 64 63
f 60 57 61 64
f 61 62 63 64
f 57 60 59 58
o L07_infill_right
g L07
usemtl mineral_wool_soft
v 342.500000 65.500000 0.000000
v 625.000000 65.500000 0.000000
v 625.000000 305.500000 0.000000
v 342.500000 305.500000 0.000000
v 342.500000 65.500000 900.000000
v 625.000000 65.500000 900.000000
v 625.000000 305.500000 900.000000
v 342.500000 305.500000 900.000000
f 65 66 70 69
f 66 67 71 70
f 67 68 72 71
f 68 65 69 72
f 69 70 71 72
f 65 68 67 66
o L08_solid
g L08
usemtl fermacell_raw
v 0.000000 305.500000 0.000000
v 625.000000 305.500000 0.000000
v 625.000000 318.000000 0.000000
v 0.000000 318.000000 0.000000
v 0.000000 305.500000 900.000000
v 625.000000 305.500000 900.000000
v 625.000000 318.000000 900.000000
v 0.000000 318.000000 900.000000
f 73 74 78 77
f 74 75 79 78
f 75 76 80 79
f 76 73 77 80
f 77 78 79 80
f 73 76 75 74
o L09_solid
g L09
usemtl diffusion_membrane
v 0.000000 318.000000 0.000000
v 625.000000 318.000000 0.000000
v 625.000000 318.500000 0.000000
v 0.000000 318.500000 0.000000
v 0.000000 318.000000 900.000000
v 625.000000 318.000000 900.000000
v 625.000000 318.500000 900.000000
v 0.000000 318.500000 900.000000
f 81 82 86 85
f 82 83 87 86
f 83 84 88 87
f 84 81 85 88
f 85 86 87 88
f 81 84 83 82
o L10_vertical_center
g L10
usemtl kvh_spruce
v 282.500000 318.500000 0.000000
v 342.500000 318.500000 0.000000
v 342.500000 358.500000 0.000000
v 282.500000 358.500000 0.000000
v 282.500000 318.500000 900.000000
v 342.500000 318.500000 900.000000
v 342.500000 358.500000 900.000000
v 282.500000 358.500000 900.000000
f 89 90 94 93
f 90 91 95 94
f 91 92 96 95
f 92 89 93 96
f 93 94 95 96
f 89 92 91 90
o L11_horizontal_center
g L11
usemtl kvh_spruce
v 0.000000 358.500000 420.000000
v 625.000000 358.500000 420.000000
v 625.000000 398.500000 420.000000
v 0.000000 398.500000 420.000000
v 0.000000 358.500000 480.000000
v 625.000000 358.500000 480.000000
v 625.000000 398.500000 480.000000
v 0.000000 398.500000 480.000000
f 97 98 102 101
f 98 99 103 102
f 99 100 104 103
f 100 97 101 104
f 101 102 103 104
f 97 100 99 98
