<?xml version="1.0" encoding="UTF-8"?>
<svg xmlns="http://www.w3.org/2000/svg" width="920" height="184" viewBox="70 68 230 46" style="color:#5E5C55">
  <title>PREFA ŠOP</title>
  <defs>
    <mask id="prefa-wordmark-mask" maskUnits="userSpaceOnUse" x="120" y="68" width="180" height="46">
      <rect x="120" y="68" width="180" height="46" fill="#000000"/>
      <path fill-rule="nonzero" fill="#ffffff" fill-opacity="1" d="M 258.414062 80.273438 C 264.523438 79.84375 269.84375 84.40625 270.347656 90.507812 C 270.851562 96.613281 266.355469 101.988281 260.261719 102.566406 C 256.246094 102.949219 252.34375 101.144531 250.03125 97.839844 C 247.722656 94.539062 247.367188 90.25 249.101562 86.613281 C 250.839844 82.976562 254.398438 80.554688 258.414062 80.273438 Z M 258.414062 80.273438 "/>
<path fill-rule="nonzero" fill="#000000" fill-opacity="1" d="M 258.585938 85.335938 C 261.949219 85.019531 264.941406 87.46875 265.292969 90.828125 C 265.648438 94.1875 263.230469 97.207031 259.875 97.597656 C 257.671875 97.855469 255.5 96.90625 254.1875 95.117188 C 252.875 93.324219 252.628906 90.96875 253.539062 88.945312 C 254.449219 86.921875 256.378906 85.542969 258.585938 85.335938 Z M 258.585938 85.335938 "/>
<path fill-rule="nonzero" fill="#ffffff" fill-opacity="1" d="M 145.3125 81.007812 C 149.410156 80.988281 154.5 80.648438 158.46875 81.476562 C 162.414062 82.304688 164.117188 86.617188 162.972656 90.222656 C 162.238281 92.53125 160.566406 93.457031 158.546875 94.503906 L 163.777344 102.070312 L 161.023438 102.078125 L 157.726562 102.082031 C 156.074219 99.722656 154.472656 97.335938 152.917969 94.914062 C 152.214844 95 151.234375 95.007812 150.503906 95.03125 L 150.503906 102.066406 L 145.335938 102.074219 Z M 145.3125 81.007812 "/>
<path fill-rule="nonzero" fill="#000000" fill-opacity="1" d="M 150.414062 85.683594 C 152.054688 85.691406 155.847656 85.339844 157.160156 86.292969 C 158.488281 87.257812 158.34375 88.824219 157.378906 90.089844 C 155.671875 91.085938 152.542969 90.730469 150.402344 90.738281 Z M 150.414062 85.683594 "/>
<path fill-rule="nonzero" fill="#ffffff" fill-opacity="1" d="M 166.550781 80.902344 L 183.046875 80.953125 L 183.035156 85.59375 L 171.734375 85.589844 L 171.730469 89.203125 L 182.316406 89.222656 L 182.296875 93.789062 L 173.988281 93.796875 L 171.726562 93.796875 L 171.710938 97.417969 C 175.496094 97.398438 179.28125 97.417969 183.066406 97.484375 L 183.078125 102.066406 L 166.519531 102.066406 Z M 166.550781 80.902344 "/>
<path fill-rule="nonzero" fill="#ffffff" fill-opacity="1" d="M 208.417969 80.699219 C 210.203125 80.746094 212.144531 80.722656 213.945312 80.734375 C 216.867188 87.597656 220.242188 95.214844 222.960938 102.074219 L 217.375 102.070312 C 216.910156 100.734375 216.25 99.179688 215.722656 97.847656 L 214.371094 97.8125 L 206.53125 97.796875 C 205.867188 99.199219 205.34375 100.613281 204.792969 102.058594 L 199.375 102.066406 C 200.191406 99.953125 201.304688 97.671875 202.199219 95.542969 Z M 208.417969 80.699219 "/>
<path fill-rule="nonzero" fill="#000000" fill-opacity="1" d="M 210.953125 86.71875 C 211.367188 87.082031 213.652344 92.589844 213.984375 93.402344 C 213.066406 93.410156 212.148438 93.417969 211.226562 93.414062 L 208.3125 93.425781 C 209.171875 91.046875 210.050781 89.039062 210.953125 86.71875 Z M 210.953125 86.71875 "/>
<path fill-rule="nonzero" fill="#ffffff" fill-opacity="1" d="M 126.050781 80.941406 C 129.503906 80.917969 138.25 80.300781 140.496094 82.414062 C 145.570312 87.195312 143.304688 94.074219 136.359375 95.207031 C 134.5 95.472656 132.875 95.425781 131.003906 95.425781 L 130.988281 102.09375 L 125.871094 102.097656 C 125.875 99.5 125.617188 82.285156 126.050781 80.941406 Z M 126.050781 80.941406 "/>
<path fill-rule="nonzero" fill="#000000" fill-opacity="1" d="M 130.992188 85.667969 C 133.859375 85.5625 140.144531 85.066406 137.398438 90.066406 C 135.660156 91.09375 133.121094 90.742188 130.980469 90.75 Z M 130.992188 85.667969 "/>
<path fill-rule="nonzero" fill="#ffffff" fill-opacity="1" d="M 273.464844 80.976562 C 277.429688 80.957031 281.714844 80.699219 285.605469 81.347656 C 288.015625 81.746094 290.296875 83.78125 290.613281 86.269531 C 291.296875 91.609375 288.523438 94.175781 283.550781 95.007812 C 281.914062 95.15625 280.257812 95.152344 278.613281 95.171875 L 278.589844 102.109375 L 273.476562 102.113281 C 273.386719 95.152344 273.464844 87.953125 273.464844 80.976562 Z M 273.464844 80.976562 "/>
<path fill-rule="nonzero" fill="#000000" fill-opacity="1" d="M 278.667969 85.59375 C 280.753906 85.601562 285.050781 84.988281 285.519531 87.679688 C 285.695312 88.699219 285.449219 89.25 284.898438 90.070312 C 283.066406 91.082031 280.820312 90.75 278.621094 90.761719 C 278.640625 89.117188 278.589844 87.203125 278.667969 85.59375 Z M 278.667969 85.59375 "/>
<path fill-rule="nonzero" fill="#ffffff" fill-opacity="1" d="M 236.292969 80.546875 C 239.917969 80.304688 242.765625 81.269531 245.65625 83.386719 C 244.546875 84.863281 243.921875 85.539062 242.910156 87.175781 C 241.023438 85.699219 239.09375 84.878906 236.640625 84.972656 C 235.851562 85.003906 234.007812 85.949219 234.371094 86.636719 C 235.496094 88.765625 239.667969 88.957031 241.722656 89.972656 C 242.757812 90.484375 243.546875 90.699219 244.425781 91.515625 C 247.097656 93.632812 246.585938 97.628906 244.523438 100.003906 C 242.886719 101.882812 240.375 102.28125 237.957031 102.394531 C 234.019531 102.050781 231.730469 101.464844 228.691406 98.792969 C 229.679688 97.679688 230.667969 96.398438 231.605469 95.226562 C 233.96875 96.914062 236.097656 98.058594 239.097656 98.011719 C 240.359375 97.992188 241.488281 96.636719 241.042969 95.773438 C 239.640625 93.066406 234.132812 93.707031 231.726562 91.746094 C 230.488281 90.738281 229.953125 90.132812 229.667969 88.53125 C 228.910156 83.492188 231.820312 81.253906 236.292969 80.546875 Z M 236.292969 80.546875 "/>
<path fill-rule="nonzero" fill="#ffffff" fill-opacity="1" d="M 186.722656 80.941406 L 202.417969 80.949219 L 202.417969 85.589844 L 191.542969 85.609375 L 191.539062 89.691406 C 193.125 89.683594 200.308594 89.554688 201.386719 89.824219 C 201.695312 90.390625 201.605469 91.199219 201.59375 91.863281 L 201.578125 94.136719 L 191.574219 94.117188 L 191.574219 102.070312 L 186.480469 102.085938 C 186.480469 99.769531 186.289062 81.558594 186.722656 80.941406 Z M 186.722656 80.941406 "/>
<path fill-rule="nonzero" fill="#ffffff" fill-opacity="1" d="M 78.492188 76.769531 L 86.308594 76.804688 C 87.527344 79.324219 89.226562 81.691406 90.414062 84.136719 C 86.691406 82.847656 82.175781 80.832031 78.476562 79.304688 Z M 78.492188 76.769531 "/>
<path fill-rule="nonzero" fill="#ffffff" fill-opacity="1" d="M 232.144531 73.992188 L 236.066406 74.015625 L 237.972656 76.394531 C 238.753906 75.605469 239.179688 74.933594 239.800781 74.023438 L 243.972656 74.023438 L 242.90625 75.621094 C 242.144531 76.722656 241.351562 77.828125 240.578125 78.921875 L 235.441406 78.925781 C 234.316406 77.371094 233.203125 75.605469 232.144531 73.992188 Z M 232.144531 73.992188 "/>

    </mask>
  </defs>

  <g id="prefa-sop-logo" aria-label="PREFA ŠOP">
    <g id="vesper-timber-mark" fill="none" stroke="currentColor" stroke-width="1.25"
       stroke-linecap="butt" stroke-linejoin="miter" stroke-miterlimit="4">
      <path d="M78.5 79h39M78.5 85.5h39M78.5 93h39M78.5 101.5h39"/>
      <path d="M91 79l-6.8-4.5M87 85.5 81.5 90M92 93l7.2 6"/>
    </g>
    <rect x="120" y="68" width="180" height="46" fill="currentColor" mask="url(#prefa-wordmark-mask)"/>
  </g>
</svg>
