<?xml version="1.0" encoding="UTF-8"?>
<svg xmlns="http://www.w3.org/2000/svg" width="48" height="32" viewBox="0 0 48 32" style="color:#5E5C55">
      <g fill="none" stroke="currentColor" stroke-width="1.15" stroke-linecap="butt" stroke-linejoin="miter">
        <path d="M2 8h18M2 12h18M2 18h18M2 24h18M11 8 5 4.5M8.5 12 4 15.5M11 18l5 4"/>
        <path d="M20 24h3M23 6h5M32 6h5M41 6h4v5M45 15v5M45 24v3h-5M36 27h-5M27 27h-4v-5M23 18v-5M29 16h10M34 11v10" stroke-dasharray="0 0"/>
        <path d="M23 6v3M45 24v3"/>
      </g>
    
</svg>
