# PREFA SOPIK parametric wall panel
# Units: millimetres (1 OBJ unit = 1 mm)
mtllib panel_1_4.mtl
o L01-A
g L01
usemtl clt_spruce_visual
v 0.000000 0.000000 0.000000
v 625.000000 0.000000 0.000000
v 625.000000 28.000000 0.000000
v 0.000000 28.000000 0.000000
v 0.000000 0.000000 900.000000
v 625.000000 0.000000 900.000000
v 625.000000 28.000000 900.000000
v 0.000000 28.000000 900.000000
f 1 2 6 5
f 2 3 7 6
f 3 4 8 7
f 4 1 5 8
f 5 6 7 8
f 1 4 3 2
o L01-B
g L01
usemtl clt_spruce_transverse
v 0.000000 28.000000 0.000000
v 625.000000 28.000000 0.000000
v 625.000000 56.000000 0.000000
v 0.000000 56.000000 0.000000
v 230.000000 42.000000 0.000000
v 229.951847 42.980171 0.000000
v 229.807853 43.950903 0.000000
v 229.569403 44.902847 0.000000
v 229.238795 45.826834 0.000000
v 228.819213 46.713967 0.000000
v 228.314696 47.555702 0.000000
v 227.730105 48.343933 0.000000
v 227.071068 49.071068 0.000000
v 226.343933 49.730105 0.000000
v 225.555702 50.314696 0.000000
v 224.713967 50.819213 0.000000
v 223.826834 51.238795 0.000000
v 222.902847 51.569403 0.000000
v 221.950903 51.807853 0.000000
v 220.980171 51.951847 0.000000
v 220.000000 52.000000 0.000000
v 219.019829 51.951847 0.000000
v 218.049097 51.807853 0.000000
v 217.097153 51.569403 0.000000
v 216.173166 51.238795 0.000000
v 215.286033 50.819213 0.000000
v 214.444298 50.314696 0.000000
v 213.656067 49.730105 0.000000
v 212.928932 49.071068 0.000000
v 212.269895 48.343933 0.000000
v 211.685304 47.555702 0.000000
v 211.180787 46.713967 0.000000
v 210.761205 45.826834 0.000000
v 210.430597 44.902847 0.000000
v 210.192147 43.950903 0.000000
v 210.048153 42.980171 0.000000
v 210.000000 42.000000 0.000000
v 210.048153 41.019829 0.000000
v 210.192147 40.049097 0.000000
v 210.430597 39.097153 0.000000
v 210.761205 38.173166 0.000000
v 211.180787 37.286033 0.000000
v 211.685304 36.444298 0.000000
v 212.269895 35.656067 0.000000
v 212.928932 34.928932 0.000000
v 213.656067 34.269895 0.000000
v 214.444298 33.685304 0.000000
v 215.286033 33.180787 0.000000
v 216.173166 32.761205 0.000000
v 217.097153 32.430597 0.000000
v 218.049097 32.192147 0.000000
v 219.019829 32.048153 0.000000
v 220.000000 32.000000 0.000000
v 220.980171 32.048153 0.000000
v 221.950903 32.192147 0.000000
v 222.902847 32.430597 0.000000
v 223.826834 32.761205 0.000000
v 224.713967 33.180787 0.000000
v 225.555702 33.685304 0.000000
v 226.343933 34.269895 0.000000
v 227.071068 34.928932 0.000000
v 227.730105 35.656067 0.000000
v 228.314696 36.444298 0.000000
v 228.819213 37.286033 0.000000
v 229.238795 38.173166 0.000000
v 229.569403 39.097153 0.000000
v 229.807853 40.049097 0.000000
v 229.951847 41.019829 0.000000
v 415.000000 42.000000 0.000000
v 414.951847 42.980171 0.000000
v 414.807853 43.950903 0.000000
v 414.569403 44.902847 0.000000
v 414.238795 45.826834 0.000000
v 413.819213 46.713967 0.000000
v 413.314696 47.555702 0.000000
v 412.730105 48.343933 0.000000
v 412.071068 49.071068 0.000000
v 411.343933 49.730105 0.000000
v 410.555702 50.314696 0.000000
v 409.713967 50.819213 0.000000
v 408.826834 51.238795 0.000000
v 407.902847 51.569403 0.000000
v 406.950903 51.807853 0.000000
v 405.980171 51.951847 0.000000
v 405.000000 52.000000 0.000000
v 404.019829 51.951847 0.000000
v 403.049097 51.807853 0.000000
v 402.097153 51.569403 0.000000
v 401.173166 51.238795 0.000000
v 400.286033 50.819213 0.000000
v 399.444298 50.314696 0.000000
v 398.656067 49.730105 0.000000
v 397.928932 49.071068 0.000000
v 397.269895 48.343933 0.000000
v 396.685304 47.555702 0.000000
v 396.180787 46.713967 0.000000
v 395.761205 45.826834 0.000000
v 395.430597 44.902847 0.000000
v 395.192147 43.950903 0.000000
v 395.048153 42.980171 0.000000
v 395.000000 42.000000 0.000000
v 395.048153 41.019829 0.000000
v 395.192147 40.049097 0.000000
v 395.430597 39.097153 0.000000
v 395.761205 38.173166 0.000000
v 396.180787 37.286033 0.000000
v 396.685304 36.444298 0.000000
v 397.269895 35.656067 0.000000
v 397.928932 34.928932 0.000000
v 398.656067 34.269895 0.000000
v 399.444298 33.685304 0.000000
v 400.286033 33.180787 0.000000
v 401.173166 32.761205 0.000000
v 402.097153 32.430597 0.000000
v 403.049097 32.192147 0.000000
v 404.019829 32.048153 0.000000
v 405.000000 32.000000 0.000000
v 405.980171 32.048153 0.000000
v 406.950903 32.192147 0.000000
v 407.902847 32.430597 0.000000
v 408.826834 32.761205 0.000000
v 409.713967 33.180787 0.000000
v 410.555702 33.685304 0.000000
v 411.343933 34.269895 0.000000
v 412.071068 34.928932 0.000000
v 412.730105 35.656067 0.000000
v 413.314696 36.444298 0.000000
v 413.819213 37.286033 0.000000
v 414.238795 38.173166 0.000000
v 414.569403 39.097153 0.000000
v 414.807853 40.049097 0.000000
v 414.951847 41.019829 0.000000
v 0.000000 32.666667 0.000000
v 0.000000 37.333333 0.000000
v 0.000000 42.000000 0.000000
v 0.000000 46.666667 0.000000
v 0.000000 51.333333 0.000000
v 20.833333 28.000000 0.000000
v 20.833333 32.666667 0.000000
v 20.833333 37.333333 0.000000
v 20.833333 42.000000 0.000000
v 20.833333 46.666667 0.000000
v 20.833333 51.333333 0.000000
v 20.833333 56.000000 0.000000
v 41.666667 28.000000 0.000000
v 41.666667 32.666667 0.000000
v 41.666667 37.333333 0.000000
v 41.666667 42.000000 0.000000
v 41.666667 46.666667 0.000000
v 41.666667 51.333333 0.000000
v 41.666667 56.000000 0.000000
v 62.500000 28.000000 0.000000
v 62.500000 32.666667 0.000000
v 62.500000 37.333333 0.000000
v 62.500000 42.000000 0.000000
v 62.500000 46.666667 0.000000
v 62.500000 51.333333 0.000000
v 62.500000 56.000000 0.000000
v 83.333333 28.000000 0.000000
v 83.333333 32.666667 0.000000
v 83.333333 37.333333 0.000000
v 83.333333 42.000000 0.000000
v 83.333333 46.666667 0.000000
v 83.333333 51.333333 0.000000
v 83.333333 56.000000 0.000000
v 104.166667 28.000000 0.000000
v 104.166667 32.666667 0.000000
v 104.166667 37.333333 0.000000
v 104.166667 42.000000 0.000000
v 104.166667 46.666667 0.000000
v 104.166667 51.333333 0.000000
v 104.166667 56.000000 0.000000
v 125.000000 28.000000 0.000000
v 125.000000 32.666667 0.000000
v 125.000000 37.333333 0.000000
v 125.000000 42.000000 0.000000
v 125.000000 46.666667 0.000000
v 125.000000 51.333333 0.000000
v 125.000000 56.000000 0.000000
v 145.833333 28.000000 0.000000
v 145.833333 32.666667 0.000000
v 145.833333 37.333333 0.000000
v 145.833333 42.000000 0.000000
v 145.833333 46.666667 0.000000
v 145.833333 51.333333 0.000000
v 145.833333 56.000000 0.000000
v 166.666667 28.000000 0.000000
v 166.666667 32.666667 0.000000
v 166.666667 37.333333 0.000000
v 166.666667 42.000000 0.000000
v 166.666667 46.666667 0.000000
v 166.666667 51.333333 0.000000
v 166.666667 56.000000 0.000000
v 187.500000 28.000000 0.000000
v 187.500000 32.666667 0.000000
v 187.500000 37.333333 0.000000
v 187.500000 42.000000 0.000000
v 187.500000 46.666667 0.000000
v 187.500000 51.333333 0.000000
v 187.500000 56.000000 0.000000
v 208.333333 28.000000 0.000000
v 208.333333 32.666667 0.000000
v 208.333333 37.333333 0.000000
v 208.333333 42.000000 0.000000
v 208.333333 46.666667 0.000000
v 208.333333 51.333333 0.000000
v 208.333333 56.000000 0.000000
v 229.166667 28.000000 0.000000
v 229.166667 32.666667 0.000000
v 229.166667 51.333333 0.000000
v 229.166667 56.000000 0.000000
v 250.000000 28.000000 0.000000
v 250.000000 32.666667 0.000000
v 250.000000 37.333333 0.000000
v 250.000000 42.000000 0.000000
v 250.000000 46.666667 0.000000
v 250.000000 51.333333 0.000000
v 250.000000 56.000000 0.000000
v 270.833333 28.000000 0.000000
v 270.833333 32.666667 0.000000
v 270.833333 37.333333 0.000000
v 270.833333 42.000000 0.000000
v 270.833333 46.666667 0.000000
v 270.833333 51.333333 0.000000
v 270.833333 56.000000 0.000000
v 291.666667 28.000000 0.000000
v 291.666667 32.666667 0.000000
v 291.666667 37.333333 0.000000
v 291.666667 42.000000 0.000000
v 291.666667 46.666667 0.000000
v 291.666667 51.333333 0.000000
v 291.666667 56.000000 0.000000
v 312.500000 28.000000 0.000000
v 312.500000 32.666667 0.000000
v 312.500000 37.333333 0.000000
v 312.500000 42.000000 0.000000
v 312.500000 46.666667 0.000000
v 312.500000 51.333333 0.000000
v 312.500000 56.000000 0.000000
v 333.333333 28.000000 0.000000
v 333.333333 32.666667 0.000000
v 333.333333 37.333333 0.000000
v 333.333333 42.000000 0.000000
v 333.333333 46.666667 0.000000
v 333.333333 51.333333 0.000000
v 333.333333 56.000000 0.000000
v 354.166667 28.000000 0.000000
v 354.166667 32.666667 0.000000
v 354.166667 37.333333 0.000000
v 354.166667 42.000000 0.000000
v 354.166667 46.666667 0.000000
v 354.166667 51.333333 0.000000
v 354.166667 56.000000 0.000000
v 375.000000 28.000000 0.000000
v 375.000000 32.666667 0.000000
v 375.000000 37.333333 0.000000
v 375.000000 42.000000 0.000000
v 375.000000 46.666667 0.000000
v 375.000000 51.333333 0.000000
v 375.000000 56.000000 0.000000
v 395.833333 28.000000 0.000000
v 395.833333 32.666667 0.000000
v 395.833333 51.333333 0.000000
v 395.833333 56.000000 0.000000
v 416.666667 28.000000 0.000000
v 416.666667 32.666667 0.000000
v 416.666667 37.333333 0.000000
v 416.666667 42.000000 0.000000
v 416.666667 46.666667 0.000000
v 416.666667 51.333333 0.000000
v 416.666667 56.000000 0.000000
v 437.500000 28.000000 0.000000
v 437.500000 32.666667 0.000000
v 437.500000 37.333333 0.000000
v 437.500000 42.000000 0.000000
v 437.500000 46.666667 0.000000
v 437.500000 51.333333 0.000000
v 437.500000 56.000000 0.000000
v 458.333333 28.000000 0.000000
v 458.333333 32.666667 0.000000
v 458.333333 37.333333 0.000000
v 458.333333 42.000000 0.000000
v 458.333333 46.666667 0.000000
v 458.333333 51.333333 0.000000
v 458.333333 56.000000 0.000000
v 479.166667 28.000000 0.000000
v 479.166667 32.666667 0.000000
v 479.166667 37.333333 0.000000
v 479.166667 42.000000 0.000000
v 479.166667 46.666667 0.000000
v 479.166667 51.333333 0.000000
v 479.166667 56.000000 0.000000
v 500.000000 28.000000 0.000000
v 500.000000 32.666667 0.000000
v 500.000000 37.333333 0.000000
v 500.000000 42.000000 0.000000
v 500.000000 46.666667 0.000000
v 500.000000 51.333333 0.000000
v 500.000000 56.000000 0.000000
v 520.833333 28.000000 0.000000
v 520.833333 32.666667 0.000000
v 520.833333 37.333333 0.000000
v 520.833333 42.000000 0.000000
v 520.833333 46.666667 0.000000
v 520.833333 51.333333 0.000000
v 520.833333 56.000000 0.000000
v 541.666667 28.000000 0.000000
v 541.666667 32.666667 0.000000
v 541.666667 37.333333 0.000000
v 541.666667 42.000000 0.000000
v 541.666667 46.666667 0.000000
v 541.666667 51.333333 0.000000
v 541.666667 56.000000 0.000000
v 562.500000 28.000000 0.000000
v 562.500000 32.666667 0.000000
v 562.500000 37.333333 0.000000
v 562.500000 42.000000 0.000000
v 562.500000 46.666667 0.000000
v 562.500000 51.333333 0.000000
v 562.500000 56.000000 0.000000
v 583.333333 28.000000 0.000000
v 583.333333 32.666667 0.000000
v 583.333333 37.333333 0.000000
v 583.333333 42.000000 0.000000
v 583.333333 46.666667 0.000000
v 583.333333 51.333333 0.000000
v 583.333333 56.000000 0.000000
v 604.166667 28.000000 0.000000
v 604.166667 32.666667 0.000000
v 604.166667 37.333333 0.000000
v 604.166667 42.000000 0.000000
v 604.166667 46.666667 0.000000
v 604.166667 51.333333 0.000000
v 604.166667 56.000000 0.000000
v 625.000000 32.666667 0.000000
v 625.000000 37.333333 0.000000
v 625.000000 42.000000 0.000000
v 625.000000 46.666667 0.000000
v 625.000000 51.333333 0.000000
v 0.000000 28.000000 900.000000
v 625.000000 28.000000 900.000000
v 625.000000 56.000000 900.000000
v 0.000000 56.000000 900.000000
v 230.000000 42.000000 900.000000
v 229.951847 42.980171 900.000000
v 229.807853 43.950903 900.000000
v 229.569403 44.902847 900.000000
v 229.238795 45.826834 900.000000
v 228.819213 46.713967 900.000000
v 228.314696 47.555702 900.000000
v 227.730105 48.343933 900.000000
v 227.071068 49.071068 900.000000
v 226.343933 49.730105 900.000000
v 225.555702 50.314696 900.000000
v 224.713967 50.819213 900.000000
v 223.826834 51.238795 900.000000
v 222.902847 51.569403 900.000000
v 221.950903 51.807853 900.000000
v 220.980171 51.951847 900.000000
v 220.000000 52.000000 900.000000
v 219.019829 51.951847 900.000000
v 218.049097 51.807853 900.000000
v 217.097153 51.569403 900.000000
v 216.173166 51.238795 900.000000
v 215.286033 50.819213 900.000000
v 214.444298 50.314696 900.000000
v 213.656067 49.730105 900.000000
v 212.928932 49.071068 900.000000
v 212.269895 48.343933 900.000000
v 211.685304 47.555702 900.000000
v 211.180787 46.713967 900.000000
v 210.761205 45.826834 900.000000
v 210.430597 44.902847 900.000000
v 210.192147 43.950903 900.000000
v 210.048153 42.980171 900.000000
v 210.000000 42.000000 900.000000
v 210.048153 41.019829 900.000000
v 210.192147 40.049097 900.000000
v 210.430597 39.097153 900.000000
v 210.761205 38.173166 900.000000
v 211.180787 37.286033 900.000000
v 211.685304 36.444298 900.000000
v 212.269895 35.656067 900.000000
v 212.928932 34.928932 900.000000
v 213.656067 34.269895 900.000000
v 214.444298 33.685304 900.000000
v 215.286033 33.180787 900.000000
v 216.173166 32.761205 900.000000
v 217.097153 32.430597 900.000000
v 218.049097 32.192147 900.000000
v 219.019829 32.048153 900.000000
v 220.000000 32.000000 900.000000
v 220.980171 32.048153 900.000000
v 221.950903 32.192147 900.000000
v 222.902847 32.430597 900.000000
v 223.826834 32.761205 900.000000
v 224.713967 33.180787 900.000000
v 225.555702 33.685304 900.000000
v 226.343933 34.269895 900.000000
v 227.071068 34.928932 900.000000
v 227.730105 35.656067 900.000000
v 228.314696 36.444298 900.000000
v 228.819213 37.286033 900.000000
v 229.238795 38.173166 900.000000
v 229.569403 39.097153 900.000000
v 229.807853 40.049097 900.000000
v 229.951847 41.019829 900.000000
v 415.000000 42.000000 900.000000
v 414.951847 42.980171 900.000000
v 414.807853 43.950903 900.000000
v 414.569403 44.902847 900.000000
v 414.238795 45.826834 900.000000
v 413.819213 46.713967 900.000000
v 413.314696 47.555702 900.000000
v 412.730105 48.343933 900.000000
v 412.071068 49.071068 900.000000
v 411.343933 49.730105 900.000000
v 410.555702 50.314696 900.000000
v 409.713967 50.819213 900.000000
v 408.826834 51.238795 900.000000
v 407.902847 51.569403 900.000000
v 406.950903 51.807853 900.000000
v 405.980171 51.951847 900.000000
v 405.000000 52.000000 900.000000
v 404.019829 51.951847 900.000000
v 403.049097 51.807853 900.000000
v 402.097153 51.569403 900.000000
v 401.173166 51.238795 900.000000
v 400.286033 50.819213 900.000000
v 399.444298 50.314696 900.000000
v 398.656067 49.730105 900.000000
v 397.928932 49.071068 900.000000
v 397.269895 48.343933 900.000000
v 396.685304 47.555702 900.000000
v 396.180787 46.713967 900.000000
v 395.761205 45.826834 900.000000
v 395.430597 44.902847 900.000000
v 395.192147 43.950903 900.000000
v 395.048153 42.980171 900.000000
v 395.000000 42.000000 900.000000
v 395.048153 41.019829 900.000000
v 395.192147 40.049097 900.000000
v 395.430597 39.097153 900.000000
v 395.761205 38.173166 900.000000
v 396.180787 37.286033 900.000000
v 396.685304 36.444298 900.000000
v 397.269895 35.656067 900.000000
v 397.928932 34.928932 900.000000
v 398.656067 34.269895 900.000000
v 399.444298 33.685304 900.000000
v 400.286033 33.180787 900.000000
v 401.173166 32.761205 900.000000
v 402.097153 32.430597 900.000000
v 403.049097 32.192147 900.000000
v 404.019829 32.048153 900.000000
v 405.000000 32.000000 900.000000
v 405.980171 32.048153 900.000000
v 406.950903 32.192147 900.000000
v 407.902847 32.430597 900.000000
v 408.826834 32.761205 900.000000
v 409.713967 33.180787 900.000000
v 410.555702 33.685304 900.000000
v 411.343933 34.269895 900.000000
v 412.071068 34.928932 900.000000
v 412.730105 35.656067 900.000000
v 413.314696 36.444298 900.000000
v 413.819213 37.286033 900.000000
v 414.238795 38.173166 900.000000
v 414.569403 39.097153 900.000000
v 414.807853 40.049097 900.000000
v 414.951847 41.019829 900.000000
v 0.000000 32.666667 900.000000
v 0.000000 37.333333 900.000000
v 0.000000 42.000000 900.000000
v 0.000000 46.666667 900.000000
v 0.000000 51.333333 900.000000
v 20.833333 28.000000 900.000000
v 20.833333 32.666667 900.000000
v 20.833333 37.333333 900.000000
v 20.833333 42.000000 900.000000
v 20.833333 46.666667 900.000000
v 20.833333 51.333333 900.000000
v 20.833333 56.000000 900.000000
v 41.666667 28.000000 900.000000
v 41.666667 32.666667 900.000000
v 41.666667 37.333333 900.000000
v 41.666667 42.000000 900.000000
v 41.666667 46.666667 900.000000
v 41.666667 51.333333 900.000000
v 41.666667 56.000000 900.000000
v 62.500000 28.000000 900.000000
v 62.500000 32.666667 900.000000
v 62.500000 37.333333 900.000000
v 62.500000 42.000000 900.000000
v 62.500000 46.666667 900.000000
v 62.500000 51.333333 900.000000
v 62.500000 56.000000 900.000000
v 83.333333 28.000000 900.000000
v 83.333333 32.666667 900.000000
v 83.333333 37.333333 900.000000
v 83.333333 42.000000 900.000000
v 83.333333 46.666667 900.000000
v 83.333333 51.333333 900.000000
v 83.333333 56.000000 900.000000
v 104.166667 28.000000 900.000000
v 104.166667 32.666667 900.000000
v 104.166667 37.333333 900.000000
v 104.166667 42.000000 900.000000
v 104.166667 46.666667 900.000000
v 104.166667 51.333333 900.000000
v 104.166667 56.000000 900.000000
v 125.000000 28.000000 900.000000
v 125.000000 32.666667 900.000000
v 125.000000 37.333333 900.000000
v 125.000000 42.000000 900.000000
v 125.000000 46.666667 900.000000
v 125.000000 51.333333 900.000000
v 125.000000 56.000000 900.000000
v 145.833333 28.000000 900.000000
v 145.833333 32.666667 900.000000
v 145.833333 37.333333 900.000000
v 145.833333 42.000000 900.000000
v 145.833333 46.666667 900.000000
v 145.833333 51.333333 900.000000
v 145.833333 56.000000 900.000000
v 166.666667 28.000000 900.000000
v 166.666667 32.666667 900.000000
v 166.666667 37.333333 900.000000
v 166.666667 42.000000 900.000000
v 166.666667 46.666667 900.000000
v 166.666667 51.333333 900.000000
v 166.666667 56.000000 900.000000
v 187.500000 28.000000 900.000000
v 187.500000 32.666667 900.000000
v 187.500000 37.333333 900.000000
v 187.500000 42.000000 900.000000
v 187.500000 46.666667 900.000000
v 187.500000 51.333333 900.000000
v 187.500000 56.000000 900.000000
v 208.333333 28.000000 900.000000
v 208.333333 32.666667 900.000000
v 208.333333 37.333333 900.000000
v 208.333333 42.000000 900.000000
v 208.333333 46.666667 900.000000
v 208.333333 51.333333 900.000000
v 208.333333 56.000000 900.000000
v 229.166667 28.000000 900.000000
v 229.166667 32.666667 900.000000
v 229.166667 51.333333 900.000000
v 229.166667 56.000000 900.000000
v 250.000000 28.000000 900.000000
v 250.000000 32.666667 900.000000
v 250.000000 37.333333 900.000000
v 250.000000 42.000000 900.000000
v 250.000000 46.666667 900.000000
v 250.000000 51.333333 900.000000
v 250.000000 56.000000 900.000000
v 270.833333 28.000000 900.000000
v 270.833333 32.666667 900.000000
v 270.833333 37.333333 900.000000
v 270.833333 42.000000 900.000000
v 270.833333 46.666667 900.000000
v 270.833333 51.333333 900.000000
v 270.833333 56.000000 900.000000
v 291.666667 28.000000 900.000000
v 291.666667 32.666667 900.000000
v 291.666667 37.333333 900.000000
v 291.666667 42.000000 900.000000
v 291.666667 46.666667 900.000000
v 291.666667 51.333333 900.000000
v 291.666667 56.000000 900.000000
v 312.500000 28.000000 900.000000
v 312.500000 32.666667 900.000000
v 312.500000 37.333333 900.000000
v 312.500000 42.000000 900.000000
v 312.500000 46.666667 900.000000
v 312.500000 51.333333 900.000000
v 312.500000 56.000000 900.000000
v 333.333333 28.000000 900.000000
v 333.333333 32.666667 900.000000
v 333.333333 37.333333 900.000000
v 333.333333 42.000000 900.000000
v 333.333333 46.666667 900.000000
v 333.333333 51.333333 900.000000
v 333.333333 56.000000 900.000000
v 354.166667 28.000000 900.000000
v 354.166667 32.666667 900.000000
v 354.166667 37.333333 900.000000
v 354.166667 42.000000 900.000000
v 354.166667 46.666667 900.000000
v 354.166667 51.333333 900.000000
v 354.166667 56.000000 900.000000
v 375.000000 28.000000 900.000000
v 375.000000 32.666667 900.000000
v 375.000000 37.333333 900.000000
v 375.000000 42.000000 900.000000
v 375.000000 46.666667 900.000000
v 375.000000 51.333333 900.000000
v 375.000000 56.000000 900.000000
v 395.833333 28.000000 900.000000
v 395.833333 32.666667 900.000000
v 395.833333 51.333333 900.000000
v 395.833333 56.000000 900.000000
v 416.666667 28.000000 900.000000
v 416.666667 32.666667 900.000000
v 416.666667 37.333333 900.000000
v 416.666667 42.000000 900.000000
v 416.666667 46.666667 900.000000
v 416.666667 51.333333 900.000000
v 416.666667 56.000000 900.000000
v 437.500000 28.000000 900.000000
v 437.500000 32.666667 900.000000
v 437.500000 37.333333 900.000000
v 437.500000 42.000000 900.000000
v 437.500000 46.666667 900.000000
v 437.500000 51.333333 900.000000
v 437.500000 56.000000 900.000000
v 458.333333 28.000000 900.000000
v 458.333333 32.666667 900.000000
v 458.333333 37.333333 900.000000
v 458.333333 42.000000 900.000000
v 458.333333 46.666667 900.000000
v 458.333333 51.333333 900.000000
v 458.333333 56.000000 900.000000
v 479.166667 28.000000 900.000000
v 479.166667 32.666667 900.000000
v 479.166667 37.333333 900.000000
v 479.166667 42.000000 900.000000
v 479.166667 46.666667 900.000000
v 479.166667 51.333333 900.000000
v 479.166667 56.000000 900.000000
v 500.000000 28.000000 900.000000
v 500.000000 32.666667 900.000000
v 500.000000 37.333333 900.000000
v 500.000000 42.000000 900.000000
v 500.000000 46.666667 900.000000
v 500.000000 51.333333 900.000000
v 500.000000 56.000000 900.000000
v 520.833333 28.000000 900.000000
v 520.833333 32.666667 900.000000
v 520.833333 37.333333 900.000000
v 520.833333 42.000000 900.000000
v 520.833333 46.666667 900.000000
v 520.833333 51.333333 900.000000
v 520.833333 56.000000 900.000000
v 541.666667 28.000000 900.000000
v 541.666667 32.666667 900.000000
v 541.666667 37.333333 900.000000
v 541.666667 42.000000 900.000000
v 541.666667 46.666667 900.000000
v 541.666667 51.333333 900.000000
v 541.666667 56.000000 900.000000
v 562.500000 28.000000 900.000000
v 562.500000 32.666667 900.000000
v 562.500000 37.333333 900.000000
v 562.500000 42.000000 900.000000
v 562.500000 46.666667 900.000000
v 562.500000 51.333333 900.000000
v 562.500000 56.000000 900.000000
v 583.333333 28.000000 900.000000
v 583.333333 32.666667 900.000000
v 583.333333 37.333333 900.000000
v 583.333333 42.000000 900.000000
v 583.333333 46.666667 900.000000
v 583.333333 51.333333 900.000000
v 583.333333 56.000000 900.000000
v 604.166667 28.000000 900.000000
v 604.166667 32.666667 900.000000
v 604.166667 37.333333 900.000000
v 604.166667 42.000000 900.000000
v 604.166667 46.666667 900.000000
v 604.166667 51.333333 900.000000
v 604.166667 56.000000 900.000000
v 625.000000 32.666667 900.000000
v 625.000000 37.333333 900.000000
v 625.000000 42.000000 900.000000
v 625.000000 46.666667 900.000000
v 625.000000 51.333333 900.000000
v 230.000000 42.000000 0.000000
v 230.000000 42.000000 900.000000
v 229.951847 42.980171 0.000000
v 229.951847 42.980171 900.000000
v 229.807853 43.950903 0.000000
v 229.807853 43.950903 900.000000
v 229.569403 44.902847 0.000000
v 229.569403 44.902847 900.000000
v 229.238795 45.826834 0.000000
v 229.238795 45.826834 900.000000
v 228.819213 46.713967 0.000000
v 228.819213 46.713967 900.000000
v 228.314696 47.555702 0.000000
v 228.314696 47.555702 900.000000
v 227.730105 48.343933 0.000000
v 227.730105 48.343933 900.000000
v 227.071068 49.071068 0.000000
v 227.071068 49.071068 900.000000
v 226.343933 49.730105 0.000000
v 226.343933 49.730105 900.000000
v 225.555702 50.314696 0.000000
v 225.555702 50.314696 900.000000
v 224.713967 50.819213 0.000000
v 224.713967 50.819213 900.000000
v 223.826834 51.238795 0.000000
v 223.826834 51.238795 900.000000
v 222.902847 51.569403 0.000000
v 222.902847 51.569403 900.000000
v 221.950903 51.807853 0.000000
v 221.950903 51.807853 900.000000
v 220.980171 51.951847 0.000000
v 220.980171 51.951847 900.000000
v 220.000000 52.000000 0.000000
v 220.000000 52.000000 900.000000
v 219.019829 51.951847 0.000000
v 219.019829 51.951847 900.000000
v 218.049097 51.807853 0.000000
v 218.049097 51.807853 900.000000
v 217.097153 51.569403 0.000000
v 217.097153 51.569403 900.000000
v 216.173166 51.238795 0.000000
v 216.173166 51.238795 900.000000
v 215.286033 50.819213 0.000000
v 215.286033 50.819213 900.000000
v 214.444298 50.314696 0.000000
v 214.444298 50.314696 900.000000
v 213.656067 49.730105 0.000000
v 213.656067 49.730105 900.000000
v 212.928932 49.071068 0.000000
v 212.928932 49.071068 900.000000
v 212.269895 48.343933 0.000000
v 212.269895 48.343933 900.000000
v 211.685304 47.555702 0.000000
v 211.685304 47.555702 900.000000
v 211.180787 46.713967 0.000000
v 211.180787 46.713967 900.000000
v 210.761205 45.826834 0.000000
v 210.761205 45.826834 900.000000
v 210.430597 44.902847 0.000000
v 210.430597 44.902847 900.000000
v 210.192147 43.950903 0.000000
v 210.192147 43.950903 900.000000
v 210.048153 42.980171 0.000000
v 210.048153 42.980171 900.000000
v 210.000000 42.000000 0.000000
v 210.000000 42.000000 900.000000
v 210.048153 41.019829 0.000000
v 210.048153 41.019829 900.000000
v 210.192147 40.049097 0.000000
v 210.192147 40.049097 900.000000
v 210.430597 39.097153 0.000000
v 210.430597 39.097153 900.000000
v 210.761205 38.173166 0.000000
v 210.761205 38.173166 900.000000
v 211.180787 37.286033 0.000000
v 211.180787 37.286033 900.000000
v 211.685304 36.444298 0.000000
v 211.685304 36.444298 900.000000
v 212.269895 35.656067 0.000000
v 212.269895 35.656067 900.000000
v 212.928932 34.928932 0.000000
v 212.928932 34.928932 900.000000
v 213.656067 34.269895 0.000000
v 213.656067 34.269895 900.000000
v 214.444298 33.685304 0.000000
v 214.444298 33.685304 900.000000
v 215.286033 33.180787 0.000000
v 215.286033 33.180787 900.000000
v 216.173166 32.761205 0.000000
v 216.173166 32.761205 900.000000
v 217.097153 32.430597 0.000000
v 217.097153 32.430597 900.000000
v 218.049097 32.192147 0.000000
v 218.049097 32.192147 900.000000
v 219.019829 32.048153 0.000000
v 219.019829 32.048153 900.000000
v 220.000000 32.000000 0.000000
v 220.000000 32.000000 900.000000
v 220.980171 32.048153 0.000000
v 220.980171 32.048153 900.000000
v 221.950903 32.192147 0.000000
v 221.950903 32.192147 900.000000
v 222.902847 32.430597 0.000000
v 222.902847 32.430597 900.000000
v 223.826834 32.761205 0.000000
v 223.826834 32.761205 900.000000
v 224.713967 33.180787 0.000000
v 224.713967 33.180787 900.000000
v 225.555702 33.685304 0.000000
v 225.555702 33.685304 900.000000
v 226.343933 34.269895 0.000000
v 226.343933 34.269895 900.000000
v 227.071068 34.928932 0.000000
v 227.071068 34.928932 900.000000
v 227.730105 35.656067 0.000000
v 227.730105 35.656067 900.000000
v 228.314696 36.444298 0.000000
v 228.314696 36.444298 900.000000
v 228.819213 37.286033 0.000000
v 228.819213 37.286033 900.000000
v 229.238795 38.173166 0.000000
v 229.238795 38.173166 900.000000
v 229.569403 39.097153 0.000000
v 229.569403 39.097153 900.000000
v 229.807853 40.049097 0.000000
v 229.807853 40.049097 900.000000
v 229.951847 41.019829 0.000000
v 229.951847 41.019829 900.000000
v 415.000000 42.000000 0.000000
v 415.000000 42.000000 900.000000
v 414.951847 42.980171 0.000000
v 414.951847 42.980171 900.000000
v 414.807853 43.950903 0.000000
v 414.807853 43.950903 900.000000
v 414.569403 44.902847 0.000000
v 414.569403 44.902847 900.000000
v 414.238795 45.826834 0.000000
v 414.238795 45.826834 900.000000
v 413.819213 46.713967 0.000000
v 413.819213 46.713967 900.000000
v 413.314696 47.555702 0.000000
v 413.314696 47.555702 900.000000
v 412.730105 48.343933 0.000000
v 412.730105 48.343933 900.000000
v 412.071068 49.071068 0.000000
v 412.071068 49.071068 900.000000
v 411.343933 49.730105 0.000000
v 411.343933 49.730105 900.000000
v 410.555702 50.314696 0.000000
v 410.555702 50.314696 900.000000
v 409.713967 50.819213 0.000000
v 409.713967 50.819213 900.000000
v 408.826834 51.238795 0.000000
v 408.826834 51.238795 900.000000
v 407.902847 51.569403 0.000000
v 407.902847 51.569403 900.000000
v 406.950903 51.807853 0.000000
v 406.950903 51.807853 900.000000
v 405.980171 51.951847 0.000000
v 405.980171 51.951847 900.000000
v 405.000000 52.000000 0.000000
v 405.000000 52.000000 900.000000
v 404.019829 51.951847 0.000000
v 404.019829 51.951847 900.000000
v 403.049097 51.807853 0.000000
v 403.049097 51.807853 900.000000
v 402.097153 51.569403 0.000000
v 402.097153 51.569403 900.000000
v 401.173166 51.238795 0.000000
v 401.173166 51.238795 900.000000
v 400.286033 50.819213 0.000000
v 400.286033 50.819213 900.000000
v 399.444298 50.314696 0.000000
v 399.444298 50.314696 900.000000
v 398.656067 49.730105 0.000000
v 398.656067 49.730105 900.000000
v 397.928932 49.071068 0.000000
v 397.928932 49.071068 900.000000
v 397.269895 48.343933 0.000000
v 397.269895 48.343933 900.000000
v 396.685304 47.555702 0.000000
v 396.685304 47.555702 900.000000
v 396.180787 46.713967 0.000000
v 396.180787 46.713967 900.000000
v 395.761205 45.826834 0.000000
v 395.761205 45.826834 900.000000
v 395.430597 44.902847 0.000000
v 395.430597 44.902847 900.000000
v 395.192147 43.950903 0.000000
v 395.192147 43.950903 900.000000
v 395.048153 42.980171 0.000000
v 395.048153 42.980171 900.000000
v 395.000000 42.000000 0.000000
v 395.000000 42.000000 900.000000
v 395.048153 41.019829 0.000000
v 395.048153 41.019829 900.000000
v 395.192147 40.049097 0.000000
v 395.192147 40.049097 900.000000
v 395.430597 39.097153 0.000000
v 395.430597 39.097153 900.000000
v 395.761205 38.173166 0.000000
v 395.761205 38.173166 900.000000
v 396.180787 37.286033 0.000000
v 396.180787 37.286033 900.000000
v 396.685304 36.444298 0.000000
v 396.685304 36.444298 900.000000
v 397.269895 35.656067 0.000000
v 397.269895 35.656067 900.000000
v 397.928932 34.928932 0.000000
v 397.928932 34.928932 900.000000
v 398.656067 34.269895 0.000000
v 398.656067 34.269895 900.000000
v 399.444298 33.685304 0.000000
v 399.444298 33.685304 900.000000
v 400.286033 33.180787 0.000000
v 400.286033 33.180787 900.000000
v 401.173166 32.761205 0.000000
v 401.173166 32.761205 900.000000
v 402.097153 32.430597 0.000000
v 402.097153 32.430597 900.000000
v 403.049097 32.192147 0.000000
v 403.049097 32.192147 900.000000
v 404.019829 32.048153 0.000000
v 404.019829 32.048153 900.000000
v 405.000000 32.000000 0.000000
v 405.000000 32.000000 900.000000
v 405.980171 32.048153 0.000000
v 405.980171 32.048153 900.000000
v 406.950903 32.192147 0.000000
v 406.950903 32.192147 900.000000
v 407.902847 32.430597 0.000000
v 407.902847 32.430597 900.000000
v 408.826834 32.761205 0.000000
v 408.826834 32.761205 900.000000
v 409.713967 33.180787 0.000000
v 409.713967 33.180787 900.000000
v 410.555702 33.685304 0.000000
v 410.555702 33.685304 900.000000
v 411.343933 34.269895 0.000000
v 411.343933 34.269895 900.000000
v 412.071068 34.928932 0.000000
v 412.071068 34.928932 900.000000
v 412.730105 35.656067 0.000000
v 412.730105 35.656067 900.000000
v 413.314696 36.444298 0.000000
v 413.314696 36.444298 900.000000
v 413.819213 37.286033 0.000000
v 413.819213 37.286033 900.000000
v 414.238795 38.173166 0.000000
v 414.238795 38.173166 900.000000
v 414.569403 39.097153 0.000000
v 414.569403 39.097153 900.000000
v 414.807853 40.049097 0.000000
v 414.807853 40.049097 900.000000
v 414.951847 41.019829 0.000000
v 414.951847 41.019829 900.000000
f 217 222 221
f 556 560 561
f 60 216 209
f 399 548 555
f 105 106 271
f 444 610 445
f 59 60 209
f 398 548 399
f 217 70 71
f 556 410 409
f 92 272 279
f 431 618 611
f 271 103 104
f 610 443 442
f 105 271 104
f 444 443 610
f 30 215 219
f 369 558 554
f 31 215 30
f 370 369 554
f 73 217 72
f 412 411 556
f 72 217 71
f 411 410 556
f 131 274 273
f 470 612 613
f 131 273 130
f 470 469 612
f 277 276 79
f 616 418 615
f 139 276 275
f 478 614 615
f 93 272 92
f 432 431 611
f 102 103 271
f 441 610 442
f 102 271 101
f 441 440 610
f 100 271 99
f 439 438 610
f 101 271 100
f 440 439 610
f 96 272 95
f 435 434 611
f 97 272 96
f 436 435 611
f 98 272 97
f 437 436 611
f 271 272 98
f 610 437 611
f 99 271 98
f 438 437 610
f 267 271 266
f 606 605 610
f 271 106 266
f 610 605 445
f 69 70 217
f 408 556 409
f 69 217 68
f 408 407 556
f 217 216 66
f 556 405 555
f 66 216 65
f 405 404 555
f 63 216 62
f 402 401 555
f 65 216 64
f 404 403 555
f 64 216 63
f 403 402 555
f 209 210 55
f 548 394 549
f 56 209 55
f 395 394 548
f 57 209 56
f 396 395 548
f 132 274 131
f 471 470 613
f 126 273 269
f 465 608 612
f 78 276 77
f 417 416 615
f 79 276 78
f 418 417 615
f 77 276 140
f 416 479 615
f 140 276 139
f 479 478 615
f 95 272 94
f 434 433 611
f 94 272 93
f 433 432 611
f 87 279 278
f 426 617 618
f 88 279 87
f 427 426 618
f 68 217 67
f 407 406 556
f 67 217 66
f 406 405 556
f 61 216 60
f 400 399 555
f 62 216 61
f 401 400 555
f 14 224 223
f 353 562 563
f 214 215 35
f 553 374 554
f 59 209 58
f 398 397 548
f 58 209 57
f 397 396 548
f 134 274 133
f 473 472 613
f 133 274 132
f 472 471 613
f 80 277 79
f 419 418 616
f 278 277 83
f 617 422 616
f 83 277 82
f 422 421 616
f 137 275 136
f 476 475 614
f 139 275 138
f 478 477 614
f 138 275 137
f 477 476 614
f 92 279 91
f 431 430 618
f 91 279 90
f 430 429 618
f 89 279 88
f 428 427 618
f 90 279 89
f 429 428 618
f 278 85 86
f 617 425 424
f 87 278 86
f 426 425 617
f 225 224 218
f 564 557 563
f 223 222 76
f 562 415 561
f 32 215 31
f 371 370 554
f 33 215 32
f 372 371 554
f 35 215 34
f 374 373 554
f 34 215 33
f 373 372 554
f 214 35 36
f 553 375 374
f 51 210 211
f 390 550 549
f 52 210 51
f 391 390 549
f 55 210 54
f 394 393 549
f 130 273 129
f 469 468 612
f 129 273 128
f 468 467 612
f 127 273 126
f 466 465 612
f 128 273 127
f 467 466 612
f 82 277 81
f 421 420 616
f 81 277 80
f 420 419 616
f 84 85 278
f 423 617 424
f 84 278 83
f 423 422 617
f 136 275 135
f 475 474 614
f 275 274 135
f 614 474 613
f 135 274 134
f 474 473 613
f 15 224 14
f 354 353 563
f 30 219 29
f 369 368 558
f 29 219 28
f 368 367 558
f 26 219 25
f 365 364 558
f 18 19 218
f 357 557 358
f 218 17 18
f 557 357 356
f 14 223 13
f 353 352 562
f 13 223 76
f 352 415 562
f 74 222 217
f 413 556 561
f 74 217 73
f 413 412 556
f 37 38 214
f 376 553 377
f 37 214 36
f 376 375 553
f 53 210 52
f 392 391 549
f 54 210 53
f 393 392 549
f 270 263 264
f 609 603 602
f 264 265 110
f 603 449 604
f 111 264 110
f 450 449 603
f 16 224 15
f 355 354 563
f 218 224 16
f 557 355 563
f 16 17 218
f 355 557 356
f 28 219 27
f 367 366 558
f 27 219 26
f 366 365 558
f 22 218 21
f 361 360 557
f 24 219 218
f 363 557 558
f 25 219 24
f 364 363 558
f 76 222 75
f 415 414 561
f 75 222 74
f 414 413 561
f 211 212 47
f 550 386 551
f 48 211 47
f 387 386 550
f 49 211 48
f 388 387 550
f 126 269 125
f 465 464 608
f 122 269 121
f 461 460 608
f 123 269 122
f 462 461 608
f 112 264 111
f 451 450 603
f 270 264 112
f 609 451 603
f 108 265 266
f 447 605 604
f 218 19 20
f 557 359 358
f 21 218 20
f 360 359 557
f 23 218 22
f 362 361 557
f 24 218 23
f 363 362 557
f 51 211 50
f 390 389 550
f 50 211 49
f 389 388 550
f 124 269 123
f 463 462 608
f 125 269 124
f 464 463 608
f 119 270 118
f 458 457 609
f 120 269 270
f 459 609 608
f 120 270 119
f 459 458 609
f 121 269 120
f 460 459 608
f 115 116 270
f 454 609 455
f 115 270 114
f 454 453 609
f 114 270 113
f 453 452 609
f 113 270 112
f 452 451 609
f 110 265 109
f 449 448 604
f 109 265 108
f 448 447 604
f 266 106 107
f 605 446 445
f 108 266 107
f 447 446 605
f 270 116 117
f 609 456 455
f 118 270 117
f 457 456 609
f 47 212 46
f 386 385 551
f 46 212 45
f 385 384 551
f 45 212 44
f 384 383 551
f 40 213 39
f 379 378 552
f 39 213 214
f 378 553 552
f 214 38 39
f 553 378 377
f 42 213 41
f 381 380 552
f 41 213 40
f 380 379 552
f 43 212 213
f 382 552 551
f 44 212 43
f 383 382 551
f 43 213 42
f 382 381 552
f 242 241 234
f 581 573 580
f 234 235 242
f 573 581 574
f 289 290 296
f 628 635 629
f 290 297 296
f 629 635 636
f 296 297 304
f 635 643 636
f 296 304 303
f 635 642 643
f 294 287 288
f 633 627 626
f 295 294 288
f 634 627 633
f 288 289 296
f 627 635 628
f 296 295 288
f 635 627 634
f 252 251 245
f 591 584 590
f 251 244 245
f 590 584 583
f 209 203 210
f 548 549 542
f 202 203 209
f 541 548 542
f 160 153 161
f 499 500 492
f 161 153 154
f 500 493 492
f 196 189 190
f 535 529 528
f 190 197 196
f 529 535 536
f 227 235 234
f 566 573 574
f 227 228 235
f 566 574 567
f 324 332 331
f 663 670 671
f 324 325 332
f 663 671 664
f 317 325 324
f 656 663 664
f 318 325 317
f 657 656 664
f 282 289 288
f 621 627 628
f 288 281 282
f 627 621 620
f 288 287 280
f 627 619 626
f 280 281 288
f 619 627 620
f 280 274 281
f 619 620 613
f 273 274 280
f 612 619 613
f 242 235 236
f 581 575 574
f 243 242 236
f 582 575 581
f 250 244 251
f 589 590 583
f 243 244 250
f 582 589 583
f 150 143 144
f 489 483 482
f 150 149 143
f 489 482 488
f 145 12 152
f 484 491 351
f 145 152 151
f 484 490 491
f 150 144 145
f 489 484 483
f 145 151 150
f 484 489 490
f 156 149 150
f 495 489 488
f 150 157 156
f 489 495 496
f 148 149 156
f 487 495 488
f 156 155 148
f 495 487 494
f 142 143 148
f 481 487 482
f 143 149 148
f 482 487 488
f 195 189 196
f 534 535 528
f 188 189 195
f 527 534 528
f 195 203 202
f 534 541 542
f 196 203 195
f 535 534 542
f 174 167 168
f 513 507 506
f 168 175 174
f 507 513 514
f 168 167 160
f 507 499 506
f 168 160 161
f 507 500 499
f 182 181 174
f 521 513 520
f 174 175 182
f 513 521 514
f 182 188 181
f 521 520 527
f 182 189 188
f 521 527 528
f 170 169 162
f 509 501 508
f 162 163 170
f 501 509 502
f 168 161 162
f 507 501 500
f 162 169 168
f 501 507 508
f 162 155 156
f 501 495 494
f 156 163 162
f 495 501 502
f 161 154 162
f 500 501 493
f 154 155 162
f 493 501 494
f 340 332 333
f 679 672 671
f 340 339 332
f 679 671 678
f 346 345 340
f 685 679 684
f 345 339 340
f 684 679 678
f 334 328 335
f 673 674 667
f 327 328 334
f 666 673 667
f 332 325 326
f 671 665 664
f 333 332 326
f 672 665 671
f 326 327 334
f 665 673 666
f 334 333 326
f 673 665 672
f 326 325 318
f 665 657 664
f 326 318 319
f 665 658 657
f 220 216 217
f 559 556 555
f 220 217 221
f 559 560 556
f 220 228 227
f 559 566 567
f 221 228 220
f 560 559 567
f 268 272 267
f 607 606 611
f 267 272 271
f 606 610 611
f 261 268 267
f 600 606 607
f 267 260 261
f 606 600 599
f 198 197 190
f 537 529 536
f 190 191 198
f 529 537 530
f 200 201 208
f 539 547 540
f 208 207 200
f 547 539 546
f 296 303 302
f 635 641 642
f 302 295 296
f 641 635 634
f 302 294 295
f 641 634 633
f 301 294 302
f 640 641 633
f 319 318 312
f 658 651 657
f 312 318 311
f 651 650 657
f 298 297 290
f 637 629 636
f 298 290 291
f 637 630 629
f 292 291 285
f 631 624 630
f 291 284 285
f 630 624 623
f 286 293 285
f 625 624 632
f 285 293 292
f 624 631 632
f 321 328 320
f 660 659 667
f 320 328 327
f 659 666 667
f 320 327 326
f 659 665 666
f 326 319 320
f 665 659 658
f 310 318 317
f 649 656 657
f 311 318 310
f 650 649 657
f 303 304 310
f 642 649 643
f 310 304 311
f 649 650 643
f 283 276 277
f 622 616 615
f 277 284 283
f 616 622 623
f 291 290 283
f 630 622 629
f 283 284 291
f 622 630 623
f 283 290 289
f 622 628 629
f 283 289 282
f 622 621 628
f 282 281 275
f 621 614 620
f 281 274 275
f 620 614 613
f 275 276 283
f 614 622 615
f 283 282 275
f 622 614 621
f 245 244 237
f 584 576 583
f 237 238 245
f 576 584 577
f 237 243 236
f 576 575 582
f 237 244 243
f 576 582 583
f 235 228 229
f 574 568 567
f 236 235 229
f 575 568 574
f 237 236 229
f 576 568 575
f 229 230 237
f 568 576 569
f 229 228 221
f 568 560 567
f 221 222 229
f 560 568 561
f 249 241 242
f 588 581 580
f 248 241 249
f 587 588 580
f 249 242 243
f 588 582 581
f 249 243 250
f 588 589 582
f 253 247 254
f 592 593 586
f 246 247 253
f 585 592 586
f 253 252 245
f 592 584 591
f 253 245 246
f 592 585 584
f 253 254 261
f 592 600 593
f 261 260 253
f 600 592 599
f 253 260 259
f 592 598 599
f 259 252 253
f 598 592 591
f 158 159 166
f 497 505 498
f 158 166 165
f 497 504 505
f 152 159 158
f 491 497 498
f 151 152 158
f 490 497 491
f 150 151 158
f 489 497 490
f 158 157 150
f 497 489 496
f 156 157 164
f 495 503 496
f 164 163 156
f 503 495 502
f 158 165 164
f 497 503 504
f 164 157 158
f 503 497 496
f 170 163 164
f 509 503 502
f 164 171 170
f 503 509 510
f 147 153 146
f 486 485 492
f 154 153 147
f 493 486 492
f 148 155 147
f 487 486 494
f 147 155 154
f 486 493 494
f 147 9 141
f 486 480 348
f 146 9 147
f 485 486 348
f 147 141 142
f 486 481 480
f 147 142 148
f 486 487 481
f 176 175 168
f 515 507 514
f 168 169 176
f 507 515 508
f 164 165 172
f 503 511 504
f 172 171 164
f 511 503 510
f 172 166 173
f 511 512 505
f 165 166 172
f 504 511 505
f 331 332 338
f 670 677 671
f 332 339 338
f 671 677 678
f 338 345 344
f 677 683 684
f 338 339 345
f 677 684 678
f 341 335 342
f 680 681 674
f 334 335 341
f 673 680 674
f 340 333 341
f 679 680 672
f 341 333 334
f 680 673 672
f 342 11 341
f 681 680 350
f 341 11 347
f 680 686 350
f 347 346 341
f 686 680 685
f 341 346 340
f 680 679 685
f 206 199 200
f 545 539 538
f 200 207 206
f 539 545 546
f 198 199 206
f 537 545 538
f 205 198 206
f 544 545 537
f 210 203 204
f 549 543 542
f 211 210 204
f 550 543 549
f 204 212 211
f 543 550 551
f 205 212 204
f 544 543 551
f 196 197 204
f 535 543 536
f 204 203 196
f 543 535 542
f 204 197 198
f 543 537 536
f 204 198 205
f 543 544 537
f 304 297 305
f 643 644 636
f 305 297 298
f 644 637 636
f 312 311 305
f 651 644 650
f 311 304 305
f 650 644 643
f 285 284 278
f 624 617 623
f 278 284 277
f 617 616 623
f 279 286 278
f 618 617 625
f 278 286 285
f 617 624 625
f 313 314 321
f 652 660 653
f 313 321 320
f 652 659 660
f 313 319 312
f 652 651 658
f 320 319 313
f 659 652 658
f 324 331 323
f 663 662 670
f 323 331 330
f 662 669 670
f 323 329 322
f 662 661 668
f 330 329 323
f 669 662 668
f 309 308 301
f 648 640 647
f 309 301 302
f 648 641 640
f 302 303 309
f 641 648 642
f 309 303 310
f 648 649 642
f 264 257 258
f 603 597 596
f 258 265 264
f 597 603 604
f 250 251 258
f 589 597 590
f 258 257 250
f 597 589 596
f 258 251 252
f 597 591 590
f 258 252 259
f 597 598 591
f 266 265 258
f 605 597 604
f 258 259 266
f 597 605 598
f 266 260 267
f 605 606 599
f 259 260 266
f 598 605 599
f 249 250 256
f 588 595 589
f 250 257 256
f 589 595 596
f 255 248 256
f 594 595 587
f 256 248 249
f 595 588 587
f 256 257 264
f 595 603 596
f 264 263 256
f 603 595 602
f 256 262 255
f 595 594 601
f 263 262 256
f 602 595 601
f 223 230 229
f 562 568 569
f 229 222 223
f 568 562 561
f 213 212 205
f 552 544 551
f 213 205 206
f 552 545 544
f 170 171 177
f 509 516 510
f 177 171 178
f 516 517 510
f 177 169 170
f 516 509 508
f 176 169 177
f 515 516 508
f 183 176 177
f 522 516 515
f 177 184 183
f 516 522 523
f 182 175 183
f 521 522 514
f 183 175 176
f 522 515 514
f 183 191 190
f 522 529 530
f 184 191 183
f 523 522 530
f 190 189 183
f 529 522 528
f 183 189 182
f 522 521 528
f 173 180 179
f 512 518 519
f 172 173 179
f 511 518 512
f 179 171 172
f 518 511 510
f 178 171 179
f 517 518 510
f 179 180 187
f 518 526 519
f 179 187 186
f 518 525 526
f 336 329 337
f 675 676 668
f 337 329 330
f 676 669 668
f 337 331 338
f 676 677 670
f 330 331 337
f 669 676 670
f 337 10 336
f 676 675 349
f 343 10 337
f 682 676 349
f 337 344 343
f 676 682 683
f 338 344 337
f 677 676 683
f 198 191 192
f 537 531 530
f 192 199 198
f 531 537 538
f 177 178 185
f 516 524 517
f 185 184 177
f 524 516 523
f 185 178 179
f 524 518 517
f 179 186 185
f 518 524 525
f 185 191 184
f 524 523 530
f 192 191 185
f 531 524 530
f 307 314 306
f 646 645 653
f 306 314 313
f 645 652 653
f 306 312 305
f 645 644 651
f 313 312 306
f 652 645 651
f 322 315 316
f 661 655 654
f 323 322 316
f 662 655 661
f 317 324 316
f 656 655 663
f 316 324 323
f 655 662 663
f 315 308 316
f 654 655 647
f 316 308 309
f 655 648 647
f 310 317 316
f 649 655 656
f 309 310 316
f 648 655 649
f 231 230 223
f 570 562 569
f 223 224 231
f 562 570 563
f 231 238 237
f 570 576 577
f 237 230 231
f 576 570 569
f 225 226 233
f 564 572 565
f 225 233 232
f 564 571 572
f 231 224 225
f 570 564 563
f 225 232 231
f 564 570 571
f 245 238 239
f 584 578 577
f 246 245 239
f 585 578 584
f 239 247 246
f 578 585 586
f 240 247 239
f 579 578 586
f 239 238 231
f 578 570 577
f 231 232 239
f 570 578 571
f 239 233 240
f 578 579 572
f 232 233 239
f 571 578 572
f 208 215 214
f 547 553 554
f 214 207 208
f 553 547 546
f 206 207 214
f 545 553 546
f 213 206 214
f 552 553 545
f 187 194 193
f 526 532 533
f 186 187 193
f 525 532 526
f 185 186 193
f 524 532 525
f 193 192 185
f 532 524 531
f 194 201 193
f 533 532 540
f 193 201 200
f 532 539 540
f 200 199 193
f 539 532 538
f 193 199 192
f 532 531 538
f 299 300 307
f 638 646 639
f 299 307 306
f 638 645 646
f 305 298 299
f 644 638 637
f 306 305 299
f 645 638 644
f 299 293 300
f 638 639 632
f 292 293 299
f 631 638 632
f 298 291 299
f 637 638 630
f 299 291 292
f 638 631 630
f 218 219 226
f 557 565 558
f 218 226 225
f 557 564 565
f 269 262 270
f 608 609 601
f 270 262 263
f 609 602 601
f 117 116 115
f 456 454 455
f 117 119 118
f 456 457 458
f 43 42 41
f 382 380 381
f 43 45 44
f 382 383 384
f 9 10 349 348
f 10 11 350 349
f 11 12 351 350
f 12 9 348 351
f 687 689 690 688
f 689 691 692 690
f 691 693 694 692
f 693 695 696 694
f 695 697 698 696
f 697 699 700 698
f 699 701 702 700
f 701 703 704 702
f 703 705 706 704
f 705 707 708 706
f 707 709 710 708
f 709 711 712 710
f 711 713 714 712
f 713 715 716 714
f 715 717 718 716
f 717 719 720 718
f 719 721 722 720
f 721 723 724 722
f 723 725 726 724
f 725 727 728 726
f 727 729 730 728
f 729 731 732 730
f 731 733 734 732
f 733 735 736 734
f 735 737 738 736
f 737 739 740 738
f 739 741 742 740
f 741 743 744 742
f 743 745 746 744
f 745 747 748 746
f 747 749 750 748
f 749 751 752 750
f 751 753 754 752
f 753 755 756 754
f 755 757 758 756
f 757 759 760 758
f 759 761 762 760
f 761 763 764 762
f 763 765 766 764
f 765 767 768 766
f 767 769 770 768
f 769 771 772 770
f 771 773 774 772
f 773 775 776 774
f 775 777 778 776
f 777 779 780 778
f 779 781 782 780
f 781 783 784 782
f 783 785 786 784
f 785 787 788 786
f 787 789 790 788
f 789 791 792 790
f 791 793 794 792
f 793 795 796 794
f 795 797 798 796
f 797 799 800 798
f 799 801 802 800
f 801 803 804 802
f 803 805 806 804
f 805 807 808 806
f 807 809 810 808
f 809 811 812 810
f 811 813 814 812
f 813 687 688 814
f 815 817 818 816
f 817 819 820 818
f 819 821 822 820
f 821 823 824 822
f 823 825 826 824
f 825 827 828 826
f 827 829 830 828
f 829 831 832 830
f 831 833 834 832
f 833 835 836 834
f 835 837 838 836
f 837 839 840 838
f 839 841 842 840
f 841 843 844 842
f 843 845 846 844
f 845 847 848 846
f 847 849 850 848
f 849 851 852 850
f 851 853 854 852
f 853 855 856 854
f 855 857 858 856
f 857 859 860 858
f 859 861 862 860
f 861 863 864 862
f 863 865 866 864
f 865 867 868 866
f 867 869 870 868
f 869 871 872 870
f 871 873 874 872
f 873 875 876 874
f 875 877 878 876
f 877 879 880 878
f 879 881 882 880
f 881 883 884 882
f 883 885 886 884
f 885 887 888 886
f 887 889 890 888
f 889 891 892 890
f 891 893 894 892
f 893 895 896 894
f 895 897 898 896
f 897 899 900 898
f 899 901 902 900
f 901 903 904 902
f 903 905 906 904
f 905 907 908 906
f 907 909 910 908
f 909 911 912 910
f 911 913 914 912
f 913 915 916 914
f 915 917 918 916
f 917 919 920 918
f 919 921 922 920
f 921 923 924 922
f 923 925 926 924
f 925 927 928 926
f 927 929 930 928
f 929 931 932 930
f 931 933 934 932
f 933 935 936 934
f 935 937 938 936
f 937 939 940 938
f 939 941 942 940
f 941 815 816 942
o L01-C
g L01
usemtl clt_spruce_nonvisual
v 0.000000 56.000000 0.000000
v 625.000000 56.000000 0.000000
v 625.000000 84.000000 0.000000
v 0.000000 84.000000 0.000000
v 0.000000 56.000000 900.000000
v 625.000000 56.000000 900.000000
v 625.000000 84.000000 900.000000
v 0.000000 84.000000 900.000000
f 943 944 948 947
f 944 945 949 948
f 945 946 950 949
f 946 943 947 950
f 947 948 949 950
f 943 946 945 944
